<?xml version="1.0" encoding="UTF-8"?>
<svg version="1.1" viewBox="0 0 129.82 223.09" xml:space="preserve" xmlns="http://www.w3.org/2000/svg" xmlns:cc="http://creativecommons.org/ns#" xmlns:dc="http://purl.org/dc/elements/1.1/" xmlns:rdf="http://www.w3.org/1999/02/22-rdf-syntax-ns#"><title>Escudo IPN</title><metadata><rdf:RDF><cc:Work rdf:about=""><dc:format>image/svg+xml</dc:format><dc:type rdf:resource="http://purl.org/dc/dcmitype/StillImage"/><dc:title>Escudo IPN</dc:title></cc:Work></rdf:RDF></metadata><g transform="matrix(1.3333 0 0 -1.3333 -61.4 242.84)"><path d="m124.18 30.825c0.235-0.3148 0.353-0.6465 0.353-0.9961 0-1.6933-2.964-3.0722-6.619-3.0722-3.656 0-6.636 1.3789-6.636 3.0722 0 2.7242 5.843 3.318 7.275 3.1434 1.601-0.1746 3.016-0.4887 4.514-1.2571v1.4493c-0.724 0.2793-1.633 0.5406-2.375 0.6632-3.2 0.4016-7.512 0.4016-10.325-2.025-0.084-0.0523-0.185-0.123-0.303-0.2273-1.449-1.2566-1.28-2.4273-0.859-3.4398 0.321-0.7672 1.701-1.7102 2.391-2.1473v-0.0176c0.018 0 0.051-0.0172 0.069-0.0344 0.201-0.1226 0.319-0.1925 0.319-0.1925v0.0347c2.931-1.4836 5.66-1.2918 8.675-0.9949 3.537 0.6289 6.114 2.4266 6.114 4.5227 0 1.5882-1.549 2.7929-2.593 3.3691v-1.8504zm-43.863 60.863v-4.4699c0.5223 0.0527 1.0441 0.0879 1.6 0.0879 0.4883 0 0.977-0.0172 1.4656-0.07l0.084 4.6618zm-0.6066-3.7539v3.6844c-0.6395-0.4016-3.8739-2.7414-3.8571-5.2551-0.3875-3.7367 3.15-6.3383 4.0598-6.5996 3.5711-0.9078 16.018-5.1328 16.692-10.476 0.8754-9.2887-8.4563-14.527-14.772-14.56l-0.4719-5.2907s2.0215-4.1734 8.6079-6.5129c4.0929-0.873 6.5347-0.6285 8.0679-0.1046 1.6508 0.6636 3.9927 2.1828 5.0867 3.8757 0.203 0.716 0.337 1.3973 0.455 1.9379-0.085 4.086-2.948 10.983-5.4913 16.796 0.5559 2.8461 0.3539 5.657-0.3707 7.4031-0.9097 1.8684-1.2461 2.741-4.1941 4.8887-4.3117 3.1426-12.329 4.993-14.064 6.9137-0.6738 0.925-0.5726 2.9511 0.2524 3.2996zm23.835 23.064c0.69-0.803 1.262-1.571 1.768-2.444 4.178-1.204 7.9-2.566 11.101-3.736-0.069 8.485-1.365 17.11-5.087 25.298zm-0.825-65.421c-1.147-1.466-3.2016-2.5835-4.7509-3.2472-10.208-2.6535-16.962 5.9707-17.13 6.8965-0.1688 0.873 0.3707 4.7488 0.4715 5.4476-0.3032 0.0176-0.6903 0-0.9938 0.0176-0.034-0.4898-0.5394-5.0984-0.5394-5.5527 1.6007-2.8106 2.2234-3.6313 5.8621-5.9364 3.4027-1.7629 8.4558-2.8457 12.498-1.5191 0.0176 0 0.5895 0.2621 0.068 0.018 1.9029 0.8379 2.6099 1.3968 3.1329 1.9554 0.589 0.5414 1.414 1.7985 1.382 1.9203zm17.786-11.226c0.775-0.1223 1.516-0.3145 2.207-0.5418l0.321 0.2453v-0.018h-0.018v8.8172h-0.017v0.0352h-5.542zm4.548-1.6235c0.623-0.4019 1.162-0.8558 1.584-1.3621l1.128 1.3621zm2.324-2.6191c0.135-0.3672 0.219-0.7684 0.219-1.1703 0-2.8461-3.672-5.2028-8.405-5.5692l-3.705-2.8988h-6.064l0.219-3.0902-1.482-2.5664-11.421 0.0176-0.6399 1.1699-11.471 0.0699-0.6906 2.409-6.1316 0.2097-3.7391 1.9903-0.1344 2.6187 0.3027 2.8813-7.6132 0.0176-1.6676 2.95-0.4715 0.7336v2.9687l1.2629 3.5957-4.6316 0.1578c-0.9938-1.3625-3.1504-2.4793-7.361-2.4965-7.1254 0.209-8.3211 3.9285-7.4621 6.4422 0.6402 1.3094 2.8465 1.7289 3.3016 1.9383v45.499l4.3457 5.7965 0.8758-0.2621 4.3457-5.7961v-36.787l1.1957-0.0176c-0.6735 1.5184-1.3133 3.0906-1.9032 4.6969l-3.5711-3.8067-0.0503-0.0351 0.3535-0.7852 2.8636-0.0351v35.984l-4.0089 5.3957-3.5543-4.4703v-45.238c2.2578 0.2621 4.3964 0.1746 6.6203-0.1219l-0.3875 2.3566 4.0761 4.5571-1.6339 0.0519v-7.4203c-0.3032 0.0527-0.7918 0.1394-1.1118 0.1746v7.2809l-5.4914 0.157-0.2859 0.7859-0.1348 0.4192-1.0953 3.0726 0.0508-0.0351-0.2191 0.664 0.7918 2.7051 4.4636 5.7453c-0.084 0.2961-0.1511 0.6106-0.2355 0.9254l-7.5461 0.4887-0.5055 1.0125-0.1519-0.0176-0.7075 3.7891 1.2637 2.1297 5.2551 5.4824c-0.1344 1.1875-0.2524 2.3922-0.3703 3.614l-4.5141 2.7762-0.1183 0.0172-2.0887 0.8035v3.457l1.8867 1.5192 1.9035 0.9426 2.611 3.3523c0 0.4012 0.0336 0.9949 0.0503 1.3965l-5.7941-0.5758s1.8863 1.5711 4.9184 3.7711l-3.6383 2.0774-1.4992 1.5717 0.4043 4.277 2.223 0.49 4.5649 0.069c0.2191 1.397 0.4714 2.776 0.7582 4.138v-10.633c0.3539 0.2439 0.7074 0.4889 1.0609 0.7339v6.704l3.7059 0.559v-4.872c0.3539 0.227 0.707 0.437 1.0781 0.663v4.366l3.234 0.471v-2.968c0.3535 0.21 0.7074 0.402 1.0781 0.594v2.549l4.3121 0.628v-1.03c0.3531 0.157 0.7074 0.314 1.0777 0.471v0.716l2.8969 0.455c2.1902 0.803 4.3797 1.413 6.4852 1.78v4.749c-0.5219 0.07-1.2461 0.279-1.3981 0.856-0.3371 1.187-0.2355 2.13 0.5563 2.951-0.152 0.646-0.8762 1.134-1.4993 1.396v4.976l3.9922 0.926 1.3137-3.842 1.3984-0.017-1.3144 4.103 1.0613 0.227 4.5817-13.968c1.7855-0.227 3.5539-0.122 5.3054-0.611l0.5903 1.117c-1.5672 0.193-3.1164 0.454-4.6828 0.297l-4.4133 13.479 1.2125 0.297 0.8425-2.706 12.717 2.811 1.4828 3.614 3.874 1.03-8.7423-22.75c0.5223-0.104 1.0609-0.227 1.6004-0.332l8.7589 23.466 1.802 0.437c0.472-1.52 0.371-2.619-0.404-4.365l-7.985-20.061c0.455-0.105 0.927-0.227 1.382-0.349l8.304 20.794c0.657 1.519 0.59 2.863-0.068 4.277l16.289 3.841 4.565-2.619 6.755 1.659-7.025 4.138-53.177-13.06v4.732l1.6844 0.454v3.212l-3.3015 1.118v1.379l3.3015-1.204v13.077l-3.3015 1.711v1.396l3.3015-1.763v10.441l0.7246 0.384v1.03l-4.0261 2.095v1.379l4.0261-2.147v10.702l-4.0765 2.48v-10.895l-5.3903-2.026v12.362l5.3903 2.567 14.166-8.8v-10.388l0.943-0.542v6.967l10.208 3.352 8.708-5.29v-15.347c-0.135-3.614-3.554-5.028-7.614-6.198v-5.221l8.17 2.061v33.854l6.198 2.322 5.879-3.475v5.797l5.778 2.078v-0.193l7.394-3.945v-33.871l4.06-2.567v-5.535l-8.541-1.85 9.821-5.57-0.102-4.435-0.606-1.676-5.221-5.185-0.068-0.542 0.69 0.07 7.665-3.579v-6.67l-7.109-3.056v-4.2074l7.261-2.8629v-6.5824l-7.008-1.345 0.034-4.8007 6.316-4.8192-0.202-6.3554-7.074 0.4023-0.994-3.7891 5.508-6.5468-0.084-5.2727-0.977-0.9262-7.378 0.6461 0.017-1.816 5.02-7.9613v-1.6762l-1.77-4.3996h-8.118l2.745-7.8562v-1.2575zm-10.493-6.7566c-1.954 0.1218-3.74 0.5929-5.171 1.2746l0.117-1.1528-2.306-1.5363h5.608zm-7.125 8.6246c0.572 0.5066 1.28 0.9605 2.105 1.3445v57.04l1.246 2.3918h-0.016l1.01 1.8508h-0.016l2.998 5.6911 1.735 0.35 5.357-9.0798v-30.17h0.033v-0.0172l6.03-4.0508h0.101v-1.1519h-6.131v-0.0352h-0.033v-11.419h-1.163v46.164l-4.919 8.3808-2.458-4.4351-1.331-2.3918-1.145-2.0778-0.236-51.663v-2.8804l-1.079-0.5239c-0.521-1.2574-1.633-1.1347-2.442-2.3925zm9.197-1.2922h-6.351c0.573 1.0125 2.645 1.7808 5.104 1.7808 2.897 0 5.256-1.0472 5.256-2.3566 0-1.2926-2.359-2.3398-5.256-2.3398-2.763 0-5.036 0.9601-5.239 2.1652h6.486zm5.205 3.4047h0.017v8.7648h0.033v0.0352h0.404l0.236-0.2793 2.745-8.5207zm-1.163 10.161v0.4019l-3.622 3.9981c-0.74-1.5191-1.516-3.0031-2.34-4.4zm-7.697 48.608 1.043 1.8856 0.793 0.0695c0.067-0.4367 0.101-1.2395 0.084-1.7985zm-1.954 1.693-1.095-1.9024-13.914-1.0304c-0.2688-1.9032-0.7411-4.068-1.3477-5.4821l11.892-34.204c0.017-0.0347 0.017-0.0523 0.017-0.0871-0.101-0.1918-0.219-0.4012-0.32-0.6105-0.354-0.2098-0.842-0.2618-0.961 0.0875l-11.588 32.859c-0.539-0.8911-1.264-2.6543-2.123-3.2481-0.2356 0.4367-1.1453 1.7469-1.4653 2.025 2.7289 3.9289 4.3289 10.616 3.0493 16.064l2.5933 0.2445c0.3371-2.0254 0.6235-3.5793 0.3539-5.832zm-59.005-53.164c-1.3473 0.0176-5.3059 0.0703-5.7102-1.3094-0.4207-1.3968 1.668-2.8808 5.4071-2.8457 1.5328 0 4.3628 0.1391 5.1882 1.886 0.4547 1.0996-1.1625 1.6754-1.8867 1.8675l0.0168-0.0167c-1.0945 0.2617-2.3414 0.4007-3.0152 0.4183zm5.5926-4.7492h0.0332c-0.1344-0.1047-0.2692-0.1922-0.4211-0.2789-0.6395-0.4012-1.2293-0.5582-1.2293-0.5582-1.1793-0.4024-2.6446-0.5942-4.5313-0.5942-5.4746-0.0347-7.4113 3.3696-6.5351 5.1504 0.8925 1.7809 5.5414 1.711 7.5125 1.6758 0.589-0.0168 1.5832-0.0871 2.4593-0.2441v-0.0176c1.5325-0.2445 3.47-0.6461 3.8571-2.1648 0.05-0.1395 0.084-0.279 0.084-0.4192 0-0.1387-0.0168-0.3316-0.05-0.5062-0.1184-0.9422-0.6235-1.6063-1.1793-2.043zm-10.41 3.318h5.1375v-0.5063h-5.0527c0.4035-0.7164 2.0039-1.3797 4.4125-1.3797 1.7851 0.0172 3.3519 0.4719 4.0593 0.8555l-0.0336 1.2922c-1.0105 0.5066-3.0652 0.8558-3.7562 0.7336-1.1285 0.0176-4.3961 0.0515-4.7504-0.8907 0-0.0351-0.0164-0.0703-0.0164-0.1046zm12.161-2.095c0.0676 0.4707 0.118 1.0989 0.118 1.536-0.0168 0.4711-0.2863 0.9601-0.5723 1.3097l3.1664 2.4266c0.7746-1.2746 1.5828-2.4785 2.409-3.6316l-0.573-1.6407zm-6.1652 27.568-4.2445 0.0691-1.4653 0.1231 0.893 0.0695 4.2785 2.1653c0.1684-0.8204 0.3535-1.6235 0.5383-2.427zm-2.4758 16.238-1.7348 0.8379 1.6844-0.2449c0.0168-0.1918 0.0336-0.384 0.0504-0.593zm21.392-53.95-6.1484-0.0523 0.775 1.3964 2.257 5.0813c1.1453-1.1523 2.3082-2.2004 3.5207-3.143zm9.5-7.6648-5.7777 0.1398 0.8925 2.2172 0.8086 5.273c1.1961-0.5769 2.8301-1.1347 4.0766-1.5015zm4.2953-2.5317 6.9734 0.0348-0.455 0.8203-0.5051 7.1941c-1.2633-0.2273-2.5438-0.3492-3.8574-0.3492-0.2696 0-0.5559 0.0172-0.825 0.0172l-0.6239-6.1101zm12.313 9.027h4.734l-1.146 3.1429c-1.163-0.7867-2.358-1.4671-3.571-2.0609zm5.272-1.4672h-5.289l0.118-6.4074-0.421-2.2692h6.687l1.28 1.711-0.64 4.0679-1.28 1.6231zm18.529 29.961h5.811l4.935-7.857h-7.057l-1.348 2.7769zm3.689-9.323h7.226l-1.415-3.5102-7.075 0.1047zm6.046 27.393-1.094-3.6316-6.738 0.6633c0.337 1.834 0.64 3.6847 0.877 5.5883l6.854-2.6024zm-6.905-4.2074 6.35-0.716 4.969-5.3945-6.788 0.7504zm4.548-6.7394 7.007-0.5411-0.202-4.0332-7.142 0.6633zm3.554 26.398 0.034-4.784-7.412 0.786c0.085 1.6765 0.117 3.3875 0.117 5.098v0.7684zm-5.979-5.2727 6.366-0.6453 4.582-3.282-6.182 0.8547zm5.592-4.5566 6.72-0.6113-0.101-4.3824-7.007 0.821zm-80.094 55.836-0.4715-0.053-1.7184-4.19 2.1899-2.741zm0-14.84-4.2282 1.396-1.3812-4.766 5.6094-5.552zm5.5582-24.252c-0.1176-2.0258-0.0844-3.6668-0.0844-5.8145 0-29.472 12.819-53.513 28.518-53.513 5.491 0 10.645 2.9688 15.025 8.1012-0.017-0.0172-0.034-0.0172-0.051-0.0172 0.303 0.3664 0.64 0.7684 0.91 1.1168 0.017 0 0.033 0 0.033-0.0168 0.22 0.2965 0.439 0.5758 0.658 0.8731 0.05 0.0527 0.067 0.0871 0.067 0.0871 0.168 0.2269 0.337 0.4535 0.505 0.6984-0.303-0.1746-0.623-0.3316-0.926-0.4887-0.067-0.0871-0.118-0.1746-0.186-0.2625-0.05-0.0343-0.084-0.0695-0.118-0.1222-0.151-0.3313-2.846-3.2473-2.846-3.2473s0.017 0 0.051-0.0172c-2.6118-2.4793-6.4176-4.8363-11.118-4.5918-9.3317 0.4891-14.94 7.8914-15.698 8.6418-0.741 0.7512-0.2859 1.2926-0.2859 1.2926l2.9977 7.1234c-0.3872 0.1047-0.7747 0.2446-1.1622 0.3844-0.4378-0.9254-2.4593-5.3254-2.8125-5.9891-0.4043-0.7507-1.2128-0.1394-1.2128-0.1394s-0.8762 1.2402-1.1118 1.7808c-0.2191 0.5411 0.2356 1.4493 0.2356 1.4493l2.291 4.2078c-0.3539 0.2265-0.7074 0.4539-1.0441 0.716l-2.3247-4.6793c-5.4914 10.301-8.0347 24.181-8.0347 36.106l14.166 1.0125c0.5055 0.5769 1.7016 1.7113 2.1227 1.9378l-16.187-1.1867v4.8364zm49.724-41.292c0.218 0.4887 0.455 0.9774 0.673 1.4836l-8.792 25.351c1.162 2.6012 1.954 5.482 2.291 8.4504l-1.92-0.1047c-0.455-2.532-1.246-5.0633-2.241-7.4203l9.618-27.516c0.068-0.157 0.203-0.2277 0.371-0.2442zm1.229 2.793c3.74 9.0617 5.963 20.393 5.963 32.684 0 0.2449-0.033 0.3492-0.033 0.5766l-9.753-0.5934c-0.304-3.8246-1.617-8.6426-3.184-11.349zm-24.507 115.32v-8.783l1.7347-0.959v8.747zm-0.9094-8.224v8.8l-1.8699 1.17v-8.748zm-2.9149 0.995-0.0332 9.498-2.139 1.327v-10.563l1.2629-0.768zm-13.71 12.798-4.3121-2.059v-11.804l4.3121 1.625zm-5.3902-2.566-3.234-1.537v-11.383l3.234 1.204zm-4.3121-2.06-3.7059-1.764v-10.894l3.7059 1.379zm-3.7059-14.003v-11.646l3.7059 1.257v11.786zm0-12.973v-11.854l3.7059 0.908v12.204zm0-13.164v-11.226l3.7059 0.663v11.471zm0-12.518v-11.96l3.7059 0.541v12.082zm0-22.646v-1.1344l-2.0043-0.2098s0.741 0.5063 2.0043 1.3442zm3.7059-0.768v3.1247c0.3371 0.21 0.707 0.42 1.0781 0.647v-3.6666zm4.3121 0.4367v5.203c0.3535 0.192 0.7074 0.384 1.0781 0.576v-5.6739zm5.3902 0.5586v4.3474l1.0777-0.419v-3.8237zm0 6.1984v1.222c0.3531 0.157 0.7074 0.332 1.0777 0.489v-2.13zm6.468-5.5527v1.17l2.3414-0.925zm0 3.0557v6.372c0.1347 0.053 0.2863 0.106 0.4382 0.158l4.0258-8.259zm0 9.708v12.553l-5.3903-0.96v-12.397zm0 13.845v12.536l-5.3903-1.31v-12.186zm0 13.846v13.74l-5.3903-1.816v-13.234zm0 15.084v12.379l-5.3903-2.043v-12.169zm-6.468-43.736v12.362l-4.3121-0.769v-12.239zm-5.3902-0.803v12.204l-3.234-0.576v-12.099zm5.3902 14.457v12.116l-4.3121-1.064v-11.821zm-5.3902-0.961v11.75l-3.234-0.785v-11.541zm5.3902 14.37v13.146l-4.3121-1.466v-12.728zm-5.3902-1.31v12.623l-3.234-1.1v-12.308zm5.3902 15.784v12.134l-4.3121-1.624v-11.977zm-5.3902-1.834v11.943l-3.234-1.222v-11.82zm52.688 25.683 5.828-3.596v-6.792zm-0.371-32.771 8.203 2.077-8.203 13.863zm11.977 2.933 2.61 0.751 3.369-1.956v31.741l-5.979 3.126zm-37.327 13.723-6.9735 3.824v-28.844l6.9735 1.764zm5.121-21.981 5.0872 1.309v5.255l-5.104 3.353zm1.2801 11.209 4.3621-2.847c2.645 0.682 5.845 1.502 6.957 4.383v14.701l-5.323 2.968v-16.377c-0.101-1.205-2.846-2.182-5.9961-2.828zm-1.4152 13.915 2.1726 0.89v-8.625l-2.1726-0.873zm33.89-71.916 5.726-1.3441 5.29 0.5582-5.693 1.589zm5.895 2.409 6.688-2.234 0.067 4.1723-6.569 2.4965zm-0.792 6.1809v3.649l-6.737 2.602c-0.1-0.053-0.218-0.123-0.32-0.192 0.118-1.991 0.135-3.982 0.05-5.9544l0.202-0.1046zm-5.373 7.298 5.829-2.479 6.484 2.619-6.956 2.915c-1.381-1.012-3.605-2.042-5.357-3.055zm5.845 4.47 6.974-3.091v3.894l-6.721 2.986zm-2.913 20.759 7.478-4.347v-2.846l-7.428 4.243zm7.141-8.555-5.389-5.238-6.822 3.771 5.137 5.343zm-13.171-2.863 6.989-3.702-0.033-0.524-2.106-0.157-4.766-1.048c0.101 1.816 0.067 3.615-0.084 5.431zm-50.499-61.301s1.4321 0.4546 0.8254 0.8031c-0.607 0.3488-1.9207 0.3488-2.4426 0.698-0.5218 0.3672-0.6738 0.8035 0.0676 0.891 0.7582 0.1047 0.9434 0.279 1.0102 0.995 0.0847 0.7156 0 3.3875 0 3.3875s-0.5219 0.5062-1.0778 0.8726c0.0508-1.0652 0.0844-1.641-0.0167-1.2746-0.0504-0.1047-0.3536 0.7508-0.6231 1.6242-0.0508 0.0172-0.1184 0.0348-0.1684 0.0348-0.0339 0-0.0843 0.0176-0.1011 0.0176-0.4039 0.0695-0.7922 0.1394-1.1625 0.2094 0.1855-1.6415 0.3703-2.7239 0.2359-2.2348-0.0676-0.1402-0.5391 1.3445-0.8594 2.3746-0.3195 0.0695-0.6062 0.157-0.8754 0.2266 0.3707-1.5715 0.6567-2.7063 0.32-2.5141-0.1008-0.1746-0.7582 1.8332-1.0446 2.741-1.2297 0.4363-1.9203 0.9254-1.9203 1.4488 0 0.4719 0.5563 0.9254 1.55 1.3102-0.0336 0.4535-0.0679 0.9074-0.0679 1.1519 0 0.5243-0.0672 1.6938-0.0672 1.6938s0.5222 1.1523 0.7586 1.8676c0.2187 0.7168 1.0437 0.1754 0.2187-0.977-0.573-0.7168-0.573-2.0777-0.3707-3.5621 0.3367 0.1219 0.7242 0.227 1.1457 0.332-0.0172 0.2266-0.0172 0.4188-0.0172 0.5586 0 0.5235 0.2192 1.0649 0.2192 1.0649s0.2355 1.7808 0.4543 2.4969c0.2191 0.7156 2.4089 2.1472 0.7586 0.0867-0.5731-0.6977-0.7415-2.3043-0.7075-4.05 0.4039 0.1047 0.8418 0.1742 1.3137 0.2617v0.4019c0 0.5411 0.3031 0.8028 0.3031 0.8028s0.5223 3.0379 0.7578 3.7539c0.2192 0.6984 2.409 2.1297 0.7414 0.0871-0.6234-0.7855-0.8421-2.7934-0.8929-4.9059 0.9769 0.1395 2.0383 0.2621 3.1672 0.3317 0.505 2.3918 1.7007 3.7359 2.8293 5.7094-3.0993 1.1355-5.0696 4.7668-5.1036 6.7043-4.7839-2.6184-7.9667-7.8743-7.9667-13.915 0-8.607 6.6699-15.644 14.873-15.644 5.1715 0 15.598 5.0109 13.526 13.164-0.809-0.3136-2.1059-0.6101-3.4031-0.855-0.3868-0.8208-1.3809-2.9504-1.4821-2.7766-0.6062-0.2789 0.1012 1.0484 0.5903 2.6195-0.725-0.1219-1.4997-0.2097-2.325-0.2972 0-0.0172-0.0164-0.0348-0.0164-0.0524-0.4555-0.6109-1.129-1.3266-1.129-1.3266s0.2188-2.148-0.3035-2.2351c-0.539-0.0867-0.7582-0.541-0.7582-0.541l-1.4312-1.9551s-0.5223-0.8035-1.2129-1.152c-0.6738-0.3671-1.1961-1.8867-1.1961-1.8867 7.9844-0.9773 11.505 7.9102 11.354 8.2762 0 0 0.909 0.2617 0.0672-1.3445-1.718-5.2899-6.1648-8.3801-12.684-8.4153-1.3305 0.0352-1.9031 0.0524-1.8695 0.3145-0.8418-0.559-0.977 1.0305-0.977 1.0305l1.0274 1.5707s0.4379 0.5414 0.5894 2.3222c0.0676 0.8031 0.5395 1.3965 1.011 1.7981-0.118-0.0524-0.2192-0.0871-0.3204-0.1043-0.6062-0.0883-1.4316-1.8684-1.364-2.4973 0.084-0.6289-0.3031-1.5187-0.977-1.7805-0.6738-0.2789-0.8257-1.3445-0.8257-1.3445s-0.7747-0.4363-1.5157-0.4363c-0.5054-0.018-5.8449 3.1597-3.891 3.4922 1.0445 0.1742 3.4531-1.4496 3.4531-1.4496zm53.715 73.767v1.746l-3.706 1.973-3.436-1.921c0.742-1.921 1.247-3.806 1.55-5.866zm-27.169-26.068c0.37-0.977 1.027-2.426 1.533-5.534l-1.92-0.192c-0.034 0.786-1.297 5.098-2.2065 6.408zm4.749-5.168c-0.033 0.629-0.403 2.724-0.959 4.069 5.576-1.606 9.837-3.16 9.837-3.16zm-11.605 4.086c0.657-0.995 1.4656-2.287 2.1062-5.081l-2.6113-0.279c-0.3707 1.467-0.8586 3.126-1.6172 3.981zm-7.8489 18.298 11.605 2.619-4.4465-11.349c-1.6 0.157-3.15 0.332-4.666 0.314zm-7.3949-3.545v1.921h3.0828v-1.955c-0.7242 0.157-2.257 0.192-3.0828 0.034zm4.868-1.832 0.3539 0.348 2.291-7.437c-0.4043 0.034-1.0445 0.052-1.4488 0.087l-1.5664 5.115c0.2863 0.437 0.7582 1.31 0.3703 1.887zm10.999-43.091c-0.7574 2.252-1.9371 3.9629-3.5199 5.8317-2.6953 3.0027-6.5188 4.8711-10.73 4.8711-0.7914 0-1.5496-0.0703-2.3074-0.1922-0.0168-0.593 0.0504-1.2223 0.3707-1.5363 4.8512-3.3348 12.094-3.8407 16.187-8.9743zm-20.786 11.943-6.502-0.4016c-0.3195-2.5492-0.0332-7.5421-0.0332-7.5421l-0.034-0.2621c1.516 2.4964 3.6383 4.5394 6.1821 5.8832-0.0172 0.8382 0.0839 1.5714 0.3871 2.3226zm8.1191 28.424c-0.084 0.052-0.1855 0.087-0.2695 0.139-0.4043 0.21-1.045 0.629-1.3813 0.594-0.2699-0.035-1.0273-0.402-1.4656-0.541v-4.697c0.5223 0.07 1.0445 0.14 1.5664 0.174 0.4887 0.053 0.9941 0.07 1.4996 0.087zm0.4207 1.047c-0.6398 0.158-1.5328 0.838-2.1391 0.768-0.2523-0.035-1.0273-0.436-1.2968-0.471-0.2696-0.018-1.2465 0.07-1.4145 0.663-0.1519 0.594-0.1855 0.437 0.0332 1.013 0.2695 0.402 0.775 1.048 1.3813 0.977 0.7246 0.158 2.8129 0.053 3.1328-0.139 0.3371-0.209 0.9437-0.786 0.9437-1.519 0-0.716-0.6406-1.292-0.6406-1.292zm-2.8297-1.292h-0.3871v-2.916h0.3871zm0-3.3h-0.3871v-0.331h0.3871zm-0.9433-8.275h1.1625v5.15c0.4714 0.07 0.9261 0.123 1.3644 0.157 0.2695 0.018 0.5559 0.035 0.8254 0.053l-0.084-5.43-1.55-3.806zm-0.3536 4.871v-4.121l-1.6675 3.719c0.573 0.157 1.1289 0.297 1.6675 0.402zm0.6567-0.402h-0.4371v-0.506h0.4371zm0-2.182h-0.4371v-1.712h0.4371zm3.5375-14.859-0.0676-3.457s3.3691 0.2969 3.2172 2.4445c-0.1516 2.2352-1.684 3.6137-3.5367 3.5973-2.8805 0-5.3227 0.3312-6.4516 2.3043l-3.2676-0.4715c-0.657-1.0309-0.2523-2.6367 0.7578-2.9332 0.8254-0.175 2.7122-0.6285 3.3856-0.6285 0.6742 0 4.666-0.2625 4.666-0.2625 0.6063-0.0344 1.3137-0.2262 1.2969-0.5934zm-6.5352 5.2555c1.1114-1.2399 2.4082-1.9731 3.9918-1.9731h2.0551l0.0504 2.6016zm40.476 5.4651-65.608-6.7393s17.771 13.548 30.218 14.561c13.172 1.03 35.389-7.822 35.389-7.822zm-26.698 6.757c1.0277-0.228 2.998-1.676 3.2007-2.096l-2.0722-1.274c-1.1957 1.274-3.0321 2.496-4.8676 3.003l0.3367 0.734c1.1113-0.088 2.257-0.21 3.4024-0.367zm-6.5524-9.6729 13.374 8.4329c-0.3707 0.087-0.7246 0.157-1.0953 0.227l-13.845-8.6775-0.0672-0.157-0.1851-0.0176zm-4.1773-0.2094 0.1011-0.2101 0.4883 0.0527-4.3457 9.2007c0.3031 0.088 0.5899 0.192 0.893 0.28l4.2277-9.4108-2.7457-0.2797-12.768 4.9765c0.32 0.157 0.6403 0.331 0.977 0.489zm-4.0762 8.9393h-0.0336 0.0336zm10.948 1.344-4.8172-10.283-0.6738-0.0875 4.3121 10.424c0.0336 0 1.6004-0.087 1.1789-0.053zm34.092-7.56-72.564-7.3155s19.489 15.224 33.217 16.254c14.587 1.17 39.347-8.939 39.347-8.939zm-31.312-30.571v-3.6492c0.4039 0.0351 0.7914 0.0871 1.1621 0.1398 0.236 0.9777 0.3032 1.9559-0.1179 2.6715-0.2188 0.2969-0.32 0.5586-0.3539 0.7676-0.2192 0.0179-0.4547 0.0523-0.6903 0.0703zm-1.3472-3.7887c0.0335 0.9602 0.05 3.1949-0.1688 3.9453-0.3707 0.0352-0.7582 0.0703-1.1453 0.0871-0.2192-0.4882-0.3031-0.9421 0.0336-1.1691 0.6734-0.4539 0.3031-2.0602-0.236-2.3219-0.1851-0.0879-0.4039-0.3324-0.6062-0.6808 0.741 0.0343 1.4484 0.0867 2.1227 0.1394zm-3.8071 8.4852c-1.6172-0.9949-0.9941 0.0523-1.0109-3.6836h0.2359c0.1344 0.314 0.2863 0.5582 0.2863 0.5582s1.2805 0.5414 1.4989 2.1476c0.0336 0.245 0.1183 0.4192 0.2019 0.5235-0.3531 0.1746-0.8586 0.2972-1.2121 0.4543zm3.1832-1.4844c0.1012-0.523 0.202-1.2574 0.0168-1.641-0.1008-0.1918-0.2527-0.4535-0.4211-0.7504 1.1621-0.1047 2.2574-0.2274 3.234-0.3848 0.0844 0.0524 0.1688 0.0356 0.2531-0.0351 0.8258-0.1219 1.836-0.3485 2.4926-0.5059-0.7918 1.2051-3.0992 2.409-5.5754 3.3172zm7.1758-5.7438c-0.0672 0.6286-0.5559 1.4137-0.9598 1.7985-0.7754 0.2617-1.6004 0.3668-2.3754 0.4887-0.1515 0.0171-0.3203 0.0523-0.4886 0.0695 0.1683-0.4887 0.3871-0.943 0.5566-1.4141 0.0328-0.4191 0.0664-0.7679 0.0664-0.7679v-1.0125c1.3481 0.2261 2.5438 0.5234 3.2008 0.8378zm-21.156-1.048c-0.0512 1.0301-0.0844 2.2875-0.0844 3.5273 0.9269 0.1223 1.9535 0.2266 3.0492 0.2961-0.1852-0.8894-0.3871-1.8851-0.573-2.7754-0.3032-1.5191-1.6508-0.9777-2.0215-0.9777-0.084 0-0.2188-0.0351-0.3703-0.0703zm-1.0106 3.4047c-0.0336-0.5934-0.0508-1.2043-0.0508-1.2043l-0.084-1.0652s0.1348-0.4715 0.3204-1.0477c-0.4547 0.0523-0.8762 0.1227-1.2805 0.1922-0.084 0.9078-0.1688 1.9207-0.202 2.9156 0.4039 0.0699 0.825 0.1399 1.2969 0.2094zm-1.9707-0.3484c0.0504-0.6118 0.1008-1.2047 0.1008-1.2047l-0.0844-1.0661s0.034-0.1398 0.1012-0.3492c-0.2863 0.0703-0.5727 0.1403-0.8254 0.2094-0.1516 0.6645-0.3031 1.3969-0.4043 2.0961 0.3203 0.1047 0.691 0.2094 1.1121 0.3145zm-1.6172-0.4899c0.0336-0.366 0.0504-0.6281 0.0504-0.6281l0.1352-1.0473c-0.7075 0.2613-1.095 0.5582-1.095 0.8727 0 0.2789 0.32 0.541 0.9094 0.8027zm17.72-3.5789c-0.3035-0.0176-0.6062-0.0348-0.9265-0.052-0.1856-0.6113-0.3031-1.3964-0.2356-2.357 0.1516-2.1301-1.4992-2.5847-2.0383-2.759-0.5218-0.1746-1.4992-0.0871-1.6507-0.9777-0.1512-0.8902-0.6063-1.6063-0.977-1.7805-0.2859-0.1398-0.5894-0.7511-1.1117-1.3617 0.775 0.4879 1.9203 0.9777 2.0887 1.1699 0.3707 0.4535 1.0617 1.6055 1.0617 1.6055s0.3699 0.5418 1.1957 0.8035c0.8254 0.2793 1.4316 1.6063 1.4316 1.6063s-0.0675 1.1699 0.4543 1.7804c0.5223 0.6286 0.6742 1.6071 0.6742 1.6071s-0.0168 0.4007 0.0336 0.7152zm-3.9246-0.1574c-0.2023-0.0164-0.4043-0.0164-0.6234-0.0164-0.084-0.1227-0.1516-0.175-0.1516-0.175s-0.3027-1.2567-0.3027-1.7813c0-0.2969-0.2363-0.6808-0.5395-0.9781 0.3875 0.2453 0.6907 0.35 0.6907 0.35s1.1289-0.5418 0.9097 1.5187c-0.0504 0.3844-0.0336 0.7504 0.0168 1.0821zm0.6739 5.134c-0.0168-0.3321 0.0671-0.6637 0.4378-0.8735 0.977-0.5242-0.0839-2.0426-0.0839-2.0426s-0.5563-0.5414-0.8762-1.5191h-0.3539c0.3375 0.7856 0.7242 2.1477 0.775 4.4516 0.0336 0 0.0676 0 0.1012-0.0164" fill="#740232" fill-rule="evenodd"/></g></svg>
